<?xml version="1.0" encoding="UTF-8"?>
<svg xmlns="http://www.w3.org/2000/svg" version="1.1" viewBox="0 0 1366 768">
  <defs>
    <style>
      .cls-1, .cls-2, .cls-3, .cls-4 {
        stroke-width: 0px;
      }

      .cls-1, .cls-5 {
        fill: #cae949;
      }

      .cls-6 {
        display: none;
        stroke: #000;
      }

      .cls-6, .cls-7, .cls-5, .cls-8, .cls-9, .cls-10 {
        stroke-miterlimit: 10;
      }

      .cls-6, .cls-9, .cls-4 {
        fill: #fff;
      }

      .cls-7 {
        fill: #000;
        stroke: #fff;
      }

      .cls-7, .cls-9 {
        stroke-width: 2px;
      }

      .cls-2, .cls-8, .cls-10 {
        fill: #6a8fff;
      }

      .cls-5, .cls-8, .cls-9, .cls-10 {
        stroke: #cae949;
      }

      .cls-8 {
        stroke-width: .75px;
      }

      .cls-3 {
        fill: #00128c;
      }
    </style>
  </defs>
  <g id="Layer_3" data-name="Layer 3">
    <g>
      <polygon class="cls-3" points="446.41 521.54 609.56 178.37 713.28 278.44 798.45 238.71 892.47 521.54 446.41 521.54"/>
      <path class="cls-4" d="M610.17,181.74l100.73,97.19,1.98,1.91,2.49-1.16,81.89-38.2,92.44,278.07h-440.12l160.6-337.8M608.95,175l-165.71,348.54h452l-95.6-287.59-85.96,40.1-104.73-101.05h0Z"/>
    </g>
  </g>
  <g id="Layer_2" data-name="Layer 2">
    <g>
      <g>
        <path class="cls-2" d="M246.84,543.08c5.06-6.26,47.88-59.27,90.03-111.8,90.54-112.86,89.87-113.6,89.43-114.09-.21-.24-.54-.6-10.9-.6-8.36,0-20.62.23-32.47.45-11.65.22-22.66.43-30.04.43-6.36,0-7.98-.16-8.35-.28-1.32-2.41-17.31-16.53-25.12-23.36l161.81-.88-163.55,220.51,139.73.04,23.79,29.58h-234.35Z"/>
        <path class="cls-1" d="M480.48,293.33l-162.66,219.31-.89,1.2h1.49s138.8.04,138.8.04l23.18,28.83h-232.78c6.88-8.52,48.53-60.08,89.54-111.2,26.23-32.69,47.07-58.81,61.93-77.62,8.83-11.17,15.63-19.86,20.2-25.83,7.96-10.38,7.83-10.52,7.28-11.13-.33-.37-.65-.72-11.18-.72-8.36,0-20.62.23-32.48.45-11.65.22-22.66.43-30.04.43-5.72,0-7.51-.13-8.07-.23-.57-.95-2.97-3.51-12.98-12.52-4.55-4.1-9.14-8.14-11.43-10.15l160.07-.87M481.98,292.57l-163.55.89s25.82,22.53,25.82,23.97c0,.29,3.32.4,8.64.4,15.08,0,46.14-.88,62.52-.88,6.21,0,10.3.13,10.62.47,1.43,1.59-179.97,226.02-179.97,226.02h235.92l-24.39-30.33-139.16-.04,163.55-220.51h0Z"/>
      </g>
      <path class="cls-8" d="M478.91,294.19l-161.59,217.87-1.95,2.63h3.05s138.52.04,138.52.04l21.81,27.13h-229.47c9.56-11.84,49.25-60.99,88.36-109.74,26.23-32.7,47.07-58.81,61.94-77.63,8.83-11.18,15.63-19.87,20.21-25.84,2.47-3.22,4.34-5.71,5.56-7.4,1.93-2.67,2.73-3.78,1.68-4.95-.55-.61-.85-.94-11.63-.94-8.37,0-20.63.23-32.49.45-11.65.22-22.65.43-30.03.43-5.1,0-7.02-.11-7.74-.19-1.04-1.42-4.06-4.43-12.91-12.39-3.58-3.23-7.19-6.42-9.68-8.61l156.36-.85M481.98,292.57l-163.55.89s25.82,22.53,25.82,23.97c0,.29,3.32.4,8.64.4,15.08,0,46.14-.88,62.52-.88,6.21,0,10.3.13,10.62.47,1.43,1.59-179.97,226.02-179.97,226.02h235.92l-24.39-30.33-139.16-.04,163.55-220.51h0Z"/>
    </g>
    <g>
      <path class="cls-10" d="M484.13,292.57l198.7,1.59-27.26,29.69h-53.08l-2.27,186.38h48.47l34.14,33.22h-198.7l39.17-34.81h35.61l.54-184.79h-51.65l-23.67-31.28Z"/>
      <path class="cls-5" d="M487.24,294.2l192.09,1.54-24.34,26.51h-53.92l-.02,1.58-2.27,186.38-.02,1.63h49.39l30.85,30.02h-190.76l35.56-31.6h36.54v-1.6s.54-184.79.54-184.79v-1.61s-1.43,0-1.43,0h-50.98l-21.23-28.04M484.13,292.57l23.67,31.28h51.65l-.54,184.79h-35.61l-39.17,34.81h198.7l-34.14-33.22h-48.47l2.27-186.38h53.08l27.26-29.69-198.7-1.59h0Z"/>
    </g>
    <g>
      <polygon class="cls-2" points="878.11 524.68 878.11 332.68 799.9 500.69 712.7 334.67 714.24 524.66 685.99 539.54 685.99 293.57 726.7 293.57 800.01 454.47 865.68 293.57 903.35 293.57 906.34 541.04 878.11 524.68"/>
      <path class="cls-1" d="M902.36,294.57l2.96,244.73-26.21-15.19v-195.95l-3.81,8.19-75.45,162.09-84.35-160.58-3.84-7.31.07,8.25,1.5,185.25-26.25,13.83v-243.31h39.07l72.08,158.21,1.92,4.22,1.75-4.29,64.54-158.13h36.01M904.34,292.57h-39.33l-65.05,159.38-72.61-159.38h-42.36v248.63l30.26-15.94-1.51-186.47,86.23,164.16,77.15-165.75v188.07l30.26,17.53-3.03-250.22h0Z"/>
    </g>
    <g>
      <polygon class="cls-2" points="878.11 527.89 878.11 335.88 799.9 503.9 712.7 337.88 714.24 527.87 685.99 542.75 685.99 296.78 726.7 296.78 800.01 457.68 865.68 296.78 903.35 296.78 906.34 544.25 878.11 527.89"/>
      <path class="cls-1" d="M902.36,297.78l2.96,244.73-26.21-15.19v-195.95l-3.81,8.19-75.45,162.09-84.35-160.58-3.84-7.31.07,8.25,1.5,185.25-26.25,13.83v-243.31h39.07l72.08,158.21,1.92,4.22,1.75-4.29,64.54-158.13h36.01M904.34,295.78h-39.33l-65.05,159.38-72.61-159.38h-42.36v248.63l30.26-15.94-1.51-186.47,86.23,164.16,77.15-165.75v188.07l30.26,17.53-3.03-250.22h0Z"/>
    </g>
    <g>
      <polygon class="cls-2" points="997.05 294.86 1089.31 543.68 1051.79 530.15 1017.04 419.23 977.33 419.72 947.27 533.32 909.16 544.19 997.05 294.86"/>
      <path class="cls-1" d="M997.08,297.8l90.55,244.21-35.03-12.64-34.38-109.73-.45-1.42-1.49.02-38.21.47-1.52.02-.39,1.47-29.72,112.31-35.7,10.18,86.33-244.9M997.03,291.92l-89.45,253.76,40.52-11.56,30.01-113.41,38.21-.47,34.68,110.68,40.01,14.44-93.97-253.43h0Z"/>
    </g>
    <polygon class="cls-9" points="979.53 396.66 1014.85 396.66 997.03 337.32 979.53 396.66"/>
    <path class="cls-6" d="M876.5,486.5"/>
    <path class="cls-7" d="M589,223"/>
  </g>
</svg>